<svg viewBox="0 0 500 500" xmlns="http://www.w3.org/2000/svg" xmlns:xlink="http://www.w3.org/1999/xlink" width="100%" id="blobSvg">
  <defs>
    <pattern id="pattern" x="0" y="0" width="28" height="49" patternUnits="userSpaceOnUse" fill="#6c7c93">
      <path d="M13.99 9.25l13 7.5v15l-13 7.5L1 31.75v-15l12.99-7.5zM3 17.9v12.7l10.99 6.34 11-6.35V17.9l-11-6.34L3 17.9zM0 15l12.98-7.5V0h-2v6.35L0 12.69v2.3zm0 18.5L12.98 41v8h-2v-6.85L0 35.81v-2.3zM15 0v7.5L27.99 15H28v-2.31h-.01L17 6.35V0h-2zm0 49v-8l12.99-7.5H28v2.31h-.01L17 42.15V49h-2z"></path>
    </pattern>
  </defs>
  <path id="blob" d="M345,261Q318,272,349.5,308.5Q381,345,364.5,365Q348,385,328.5,409Q309,433,279.5,461.5Q250,490,241.5,395.5Q233,301,193.5,341Q154,381,172,337.5Q190,294,120,304.5Q50,315,61,282.5Q72,250,74,221.5Q76,193,121,191Q166,189,158,150.5Q150,112,174.5,103Q199,94,224.5,120Q250,146,269,139.5Q288,133,309,137Q330,141,374,134.5Q418,128,437.5,155.5Q457,183,414.5,216.5Q372,250,345,261Z" fill="url(#pattern)" stroke-width="7px" stroke="#d1d8e0"></path>
</svg>