<svg viewBox="0 0 500 500" xmlns="http://www.w3.org/2000/svg" xmlns:xlink="http://www.w3.org/1999/xlink" width="100%" id="blobSvg">
  <path id="blob" d="M412,265.5Q335,281,352,315.5Q369,350,349,368Q329,386,297,360.5Q265,335,238,402Q211,469,192,426Q173,383,122.5,391Q72,399,59.5,361.5Q47,324,28,287Q9,250,40,217.5Q71,185,93.5,161.5Q116,138,163,159.5Q210,181,216,136.5Q222,92,256.5,53.5Q291,15,292,95Q293,175,352.5,144.5Q412,114,413,152Q414,190,451.5,220Q489,250,412,265.5Z" fill="#B53471"></path>
</svg>