<svg viewBox="0 0 500 500" xmlns="http://www.w3.org/2000/svg" xmlns:xlink="http://www.w3.org/1999/xlink" width="100%" id="blobSvg">
  <defs>
    <pattern id="pattern" x="0" y="0" width="40" height="40" patternUnits="userSpaceOnUse" fill="#6c7c93">
      <path d="M0 40L40 0H20L0 20M40 40V20L20 40"></path>
    </pattern>
  </defs>
  <path id="blob" d="M345,261Q318,272,349.5,308.5Q381,345,364.5,365Q348,385,328.5,409Q309,433,279.5,461.5Q250,490,241.5,395.5Q233,301,193.5,341Q154,381,172,337.5Q190,294,120,304.5Q50,315,61,282.5Q72,250,74,221.5Q76,193,121,191Q166,189,158,150.5Q150,112,174.5,103Q199,94,224.5,120Q250,146,269,139.5Q288,133,309,137Q330,141,374,134.5Q418,128,437.5,155.5Q457,183,414.5,216.5Q372,250,345,261Z" fill="url(#pattern)"></path>
</svg>