<svg viewBox="0 0 500 500" xmlns="http://www.w3.org/2000/svg" xmlns:xlink="http://www.w3.org/1999/xlink" width="100%" id="blobSvg">
  <path id="blob" d="M373,280.5Q417,311,377,317Q337,323,344,374Q351,425,309,385.5Q267,346,253,329Q239,312,184.5,385Q130,458,166,374Q202,290,181,286.5Q160,283,172,266.5Q184,250,186.5,239Q189,228,150,180.5Q111,133,133.5,110Q156,87,192,106.5Q228,126,244.5,156Q261,186,287.5,162.5Q314,139,305.5,175Q297,211,344,205Q391,199,360,224.5Q329,250,373,280.5Z" fill="#d1d8e0"></path>
</svg>